<svg width="12" height="12" viewBox="0 0 12 12" fill="none" xmlns="http://www.w3.org/2000/svg">
<g clip-path="url(#clip0)">
<path d="M4.35256 8.64066C4.24343 9.17716 4.17258 9.43655 3.75847 9.46978C3.65642 9.47798 3.57332 9.55499 3.55741 9.65611C3.54146 9.75719 3.59687 9.85606 3.69146 9.89523C3.71808 9.90623 4.35145 10.165 5.09144 10.1651C5.09156 10.1651 5.09163 10.1651 5.0917 10.1651C5.60738 10.1651 6.04974 10.0401 6.40644 9.79356C6.82916 9.50146 7.1206 9.04433 7.27554 8.4354L5.85152 7C4.64809 7.19478 4.4776 8.02589 4.35256 8.64066Z" fill="#DBA83D"/>
<path d="M11.915 2.33856C11.8768 2.29994 11.8085 2.25391 11.7007 2.25391C11.5743 2.25391 11.2386 2.25391 9.19983 3.98878C8.25808 4.79014 7.17227 5.78151 6.30859 6.62513L7.65992 7.98721C8.54822 7.06391 9.58445 5.90666 10.4085 4.91344C10.9289 4.28635 11.3291 3.7689 11.5979 3.37553C11.954 2.8545 12.1099 2.53493 11.915 2.33856Z" fill="#DBA83D"/>
<path d="M6.74114 10.2808C6.28383 10.5968 5.7285 10.757 5.09029 10.757C4.25028 10.757 3.5427 10.4746 3.46418 10.4422C3.11622 10.298 2.91416 9.93743 2.97279 9.56544C3.0302 9.20102 3.32215 8.92406 3.68683 8.88444C3.71862 8.78953 3.75377 8.61664 3.77259 8.52419C3.84193 8.18343 3.93684 7.71667 4.22883 7.30123C4.5477 6.84761 5.02834 6.55677 5.65946 6.4349C6.02167 6.07542 6.43494 5.68017 6.86618 5.27905C6.64818 5.23176 6.45325 5.08977 6.3487 4.87502C6.16872 4.50509 6.3257 4.06011 6.69883 3.88209C7.07293 3.70363 7.52164 3.8595 7.70135 4.22998C7.73683 4.303 7.75876 4.37887 7.76899 4.45503C8.12666 4.13469 8.48185 3.82376 8.81718 3.53842C8.81917 3.53672 8.82106 3.53509 8.82309 3.5334C8.44619 2.81216 7.9057 2.17313 7.24715 1.68385C6.30151 0.981255 5.1755 0.60967 3.99093 0.609375C3.99056 0.609375 3.9903 0.609375 3.99001 0.609375C3.19057 0.609375 2.2188 0.888701 1.45382 1.33848C0.516158 1.88975 -0.000184543 2.62701 4.94768e-08 3.41437C0.000295398 4.36495 0.536426 4.76256 0.967229 5.08202C1.31851 5.34255 1.59595 5.5483 1.5961 5.99922C1.59621 6.45011 1.31891 6.65567 0.96782 6.91595C0.537165 7.23522 0.00114452 7.63261 0.00143987 8.5833C0.00166138 9.37055 0.518336 10.108 1.45625 10.6597C2.22179 11.1101 3.19408 11.39 3.99366 11.3902C3.99422 11.3902 3.9947 11.3902 3.99521 11.3902C5.4463 11.3902 6.8104 10.8301 7.83637 9.81306C8.60564 9.0505 9.11581 8.09944 9.32318 7.06477C8.8081 7.63593 8.28958 8.19052 7.82566 8.66415C7.62888 9.37579 7.26457 9.91912 6.74114 10.2808ZM4.09995 2.84631C4.19217 2.44496 4.59466 2.19444 4.99907 2.28636C5.40292 2.37785 5.65596 2.77671 5.5644 3.1775C5.47214 3.57785 5.06943 3.82841 4.66499 3.73697C4.26081 3.646 4.00765 3.24665 4.09995 2.84631ZM1.66333 4.2141C1.40471 3.89232 1.45788 3.42401 1.78206 3.16787C2.1062 2.91221 2.57843 2.96463 2.83752 3.28582C3.09558 3.60712 3.04223 4.07543 2.71831 4.33209C2.39487 4.58831 1.92191 4.53533 1.66333 4.2141ZM2.05806 9.12486C1.73369 8.86849 1.68035 8.40018 1.93896 8.07851C2.19739 7.75747 2.6698 7.70482 2.99413 7.96111C3.3182 8.21744 3.37159 8.68579 3.11319 9.0069C2.8548 9.32857 2.38235 9.38118 2.05806 9.12486Z" fill="#DBA83D"/>
</g>
<defs>
<clipPath id="clip0">
<rect width="12" height="12" fill="white"/>
</clipPath>
</defs>
</svg>
