<svg width="31" height="31" viewBox="0 0 31 31" fill="none" xmlns="http://www.w3.org/2000/svg">
<path d="M21.5 10.25C21.5 13.7018 18.7018 16.5 15.25 16.5C11.7982 16.5 9 13.7018 9 10.25C9 6.79822 11.7982 4 15.25 4C18.7018 4 21.5 6.79822 21.5 10.25Z" fill="white"/>
<path fill-rule="evenodd" clip-rule="evenodd" d="M3.33496 25.1063C5.92061 21.1297 10.4032 18.5 15.5 18.5C20.5968 18.5 25.0794 21.1297 27.6651 25.1063C24.8263 28.6963 20.4322 31 15.5 31C10.5679 31 6.17375 28.6963 3.33496 25.1063Z" fill="white"/>
<path fill-rule="evenodd" clip-rule="evenodd" d="M15.5 29C22.9558 29 29 22.9558 29 15.5C29 8.04416 22.9558 2 15.5 2C8.04416 2 2 8.04416 2 15.5C2 22.9558 8.04416 29 15.5 29ZM15.5 31C24.0604 31 31 24.0604 31 15.5C31 6.93959 24.0604 0 15.5 0C6.93959 0 0 6.93959 0 15.5C0 24.0604 6.93959 31 15.5 31Z" fill="white"/>
</svg>
