<svg width="20" height="21" viewBox="0 0 20 21" fill="none" xmlns="http://www.w3.org/2000/svg">
<path d="M7.55216 20.9998C7.55216 20.8518 7.54963 20.5909 7.54625 20.2418C7.54234 19.8378 7.53729 19.3159 7.53369 18.7144C3.79785 19.5265 3.00972 16.9128 3.00972 16.9128C2.39953 15.3607 1.51908 14.9475 1.51908 14.9475C0.299534 14.1134 1.6114 14.1303 1.6114 14.1303C2.95852 14.2253 3.66775 15.5153 3.66775 15.5153C4.86631 17.5689 6.81103 16.976 7.5765 16.6315C7.6982 15.7631 8.04568 15.1708 8.42925 14.8349C5.44712 14.4957 2.31224 13.3433 2.31224 8.19383C2.31224 6.72645 2.83514 5.52719 3.69461 4.58727C3.55612 4.2472 3.09533 2.88146 3.82555 1.03112C3.82555 1.03112 4.9536 0.669922 7.51858 2.40857C8.5904 2.11033 9.7386 1.96183 10.8809 1.95577C12.0216 1.96162 13.1706 2.11033 14.2433 2.40857C16.8066 0.669922 17.9321 1.03112 17.9321 1.03112C18.6648 2.88146 18.204 4.2472 18.0656 4.58727C18.9267 5.52719 19.4463 6.72645 19.4463 8.19383C19.4463 13.3558 16.3063 14.4923 13.315 14.8249C13.7967 15.2398 14.2265 16.0595 14.2265 17.3135C14.2265 18.5149 14.219 19.5607 14.214 20.2537C14.2115 20.5971 14.2097 20.8539 14.2097 21" stroke="#9FA6B2"/>
</svg>
