<svg width="22" height="19" viewBox="0 0 22 19" fill="none" xmlns="http://www.w3.org/2000/svg">
<path d="M19.8401 1.61183C19.3294 1.10083 18.7229 0.695472 18.0555 0.41891C17.388 0.142347 16.6726 0 15.9501 0C15.2276 0 14.5122 0.142347 13.8448 0.41891C13.1773 0.695472 12.5709 1.10083 12.0601 1.61183L11.0001 2.67183L9.94012 1.61183C8.90843 0.580134 7.50915 0.000534762 6.05012 0.000534773C4.59109 0.000534784 3.19181 0.580134 2.16012 1.61183C1.12843 2.64352 0.548828 4.04279 0.548828 5.50183C0.548828 6.96086 1.12843 8.36013 2.16012 9.39183L3.22012 10.4518L11.0001 18.2318L18.7801 10.4518L19.8401 9.39183C20.3511 8.88107 20.7565 8.27464 21.033 7.60718C21.3096 6.93972 21.4519 6.22431 21.4519 5.50183C21.4519 4.77934 21.3096 4.06393 21.033 3.39647C20.7565 2.72901 20.3511 2.12258 19.8401 1.61183Z" fill="#FF4848"/>
</svg>
