<svg width="10" height="11" viewBox="0 0 10 11" fill="none" xmlns="http://www.w3.org/2000/svg">
<path d="M5.5 4.4422H4.5V3.4422H5.5V4.4422ZM5.5 8.4422H4.5V5.4422H5.5V8.4422ZM5 0.9422C4.34339 0.9422 3.69321 1.07153 3.08658 1.3228C2.47995 1.57408 1.92876 1.94237 1.46447 2.40667C0.526784 3.34435 0 4.61612 0 5.9422C0 7.26828 0.526784 8.54005 1.46447 9.47773C1.92876 9.94203 2.47995 10.3103 3.08658 10.5616C3.69321 10.8129 4.34339 10.9422 5 10.9422C6.32608 10.9422 7.59785 10.4154 8.53553 9.47773C9.47322 8.54005 10 7.26828 10 5.9422C10 5.28559 9.87067 4.63541 9.6194 4.02878C9.36812 3.42215 8.99983 2.87096 8.53553 2.40667C8.07124 1.94237 7.52005 1.57408 6.91342 1.3228C6.30679 1.07153 5.65661 0.9422 5 0.9422Z" fill="#C9CACD"/>
</svg>
