<svg width="17" height="16" viewBox="0 0 17 16" fill="none" xmlns="http://www.w3.org/2000/svg">
<path d="M8.06104 0.281147C8.23038 -0.0937164 8.76962 -0.0937153 8.93896 0.281148L11.0425 4.93767C11.1124 5.09228 11.2604 5.19843 11.431 5.2162L16.5692 5.75131C16.9829 5.79439 17.1495 6.30043 16.8405 6.57518L13.0024 9.98819C12.875 10.1015 12.8184 10.2733 12.854 10.4389L13.926 15.4261C14.0123 15.8276 13.5761 16.1403 13.2158 15.9353L8.74012 13.3881C8.59151 13.3035 8.40849 13.3035 8.25988 13.3881L3.78423 15.9353C3.42393 16.1403 2.98768 15.8276 3.07398 15.4261L4.14601 10.4389C4.1816 10.2733 4.12504 10.1015 3.99761 9.98818L0.159474 6.57518C-0.149506 6.30043 0.0171271 5.79439 0.430767 5.75131L5.56897 5.2162C5.73957 5.19843 5.88764 5.09228 5.95748 4.93767L8.06104 0.281147Z" fill="#F8B017"/>
</svg>
