<svg width="24" height="20" viewBox="0 0 24 20" fill="none" xmlns="http://www.w3.org/2000/svg">
<path d="M23 0.998337C22.0424 1.67381 20.9821 2.19045 19.86 2.52834C19.2577 1.83585 18.4573 1.34503 17.567 1.12226C16.6767 0.899497 15.7395 0.955533 14.8821 1.28279C14.0247 1.61005 13.2884 2.19274 12.773 2.95205C12.2575 3.71137 11.9877 4.61067 12 5.52834V6.52834C10.2426 6.5739 8.50127 6.18415 6.93101 5.39378C5.36074 4.60342 4.01032 3.43697 3 1.99834C3 1.99834 -1 10.9983 8 14.9983C5.94053 16.3963 3.48716 17.0973 1 16.9983C10 21.9983 21 16.9983 21 5.49834C20.9991 5.21979 20.9723 4.94193 20.92 4.66834C21.9406 3.66183 22.6608 2.39105 23 0.998337V0.998337Z" stroke="#9FA6B2" stroke-linecap="round" stroke-linejoin="round"/>
</svg>
